<?xml version="1.0" encoding="utf-8"?>
<!-- Generator: Adobe Illustrator 16.0.0, SVG Export Plug-In . SVG Version: 6.00 Build 0)  -->
<!DOCTYPE svg PUBLIC "-//W3C//DTD SVG 1.1//EN" "http://www.w3.org/Graphics/SVG/1.1/DTD/svg11.dtd">
<svg version="1.1" id="Layer_1" xmlns="http://www.w3.org/2000/svg" xmlns:xlink="http://www.w3.org/1999/xlink" x="0px" y="0px"
	 width="612px" height="792px" viewBox="0 0 612 792" enable-background="new 0 0 612 792" xml:space="preserve">
<path fill="#004150" stroke="#004150" stroke-miterlimit="10" d="M535.5,90h-459C34.306,90,0,124.306,0,166.5v344.25
	c0,42.194,34.306,76.5,76.5,76.5h114.75v100.406c0,8.485,6.933,14.344,14.344,14.344c2.869,0,5.857-0.837,8.487-2.869
	L363.375,587.25H535.5c42.194,0,76.5-34.306,76.5-76.5V166.5C612,124.306,577.694,90,535.5,90z M554.625,510.75
	c0,10.519-8.606,19.125-19.125,19.125H344.25l-15.3,11.475l-80.325,60.244v-71.719H76.5c-10.519,0-19.125-8.606-19.125-19.125V166.5
	c0-10.519,8.606-19.125,19.125-19.125h459c10.519,0,19.125,8.606,19.125,19.125V510.75z"/>
</svg>
